# xmcd
#
# Track frame offsets:
#	150
#	18444
#	34266
#	56112
#	72553
#	88452
#	104221
#	127454
#	142534
#	161753
#	177668
#	193726
#	210073
#
# Disc length: 2999 seconds
#
# Revision: 0
# Processed by: cddbd v1.5.2PL0 Copyright (c) Steve Scherf et al.
# Submitted via: EasyCDDAExtractor 11.0.3.1
#
DISCID=cc0bb50d
DTITLE=Lisa Haley - King Cake
DYEAR=2007
DGENRE=Blues
TTITLE0=King Cake
TTITLE1=Big Diamond Smile
TTITLE2=Mardi Gras Party/Little Dreamer
TTITLE3=Louisiana
TTITLE4=Have A Little Faith
TTITLE5=Paper In My Shoe
TTITLE6=Always Be Your Guide
TTITLE7=Zydecosis
TTITLE8=Your Folks Threw Me Out
TTITLE9=Mardi Gras
TTITLE10=Rubboard Stomach
TTITLE11=Goodbye Sun
TTITLE12=Don't You Tell Your Mother
EXTD=
EXTT0=
EXTT1=
EXTT2=
EXTT3=
EXTT4=
EXTT5=
EXTT6=
EXTT7=
EXTT8=
EXTT9=
EXTT10=
EXTT11=
EXTT12=
PLAYORDER=
